<?xml version="1.0" standalone="no"?>
<!DOCTYPE svg PUBLIC "-//W3C//DTD SVG 20010904//EN"
 "http://www.w3.org/TR/2001/REC-SVG-20010904/DTD/svg10.dtd">
<svg version="1.0" xmlns="http://www.w3.org/2000/svg"
 width="496.000000pt" height="377.000000pt" viewBox="0 0 496.000000 377.000000"
 preserveAspectRatio="xMidYMid meet">

<g transform="translate(0.000000,377.000000) scale(0.100000,-0.100000)"
fill="#000000" stroke="none">
<path d="M3140 3322 c0 -11 50 -81 110 -158 142 -179 232 -312 297 -441 90
-181 116 -364 63 -451 -51 -84 -189 -158 -555 -300 -382 -148 -495 -204 -588
-291 -68 -63 -87 -105 -87 -189 0 -118 48 -238 155 -387 68 -95 132 -169 323
-373 154 -165 195 -216 222 -276 l18 -39 16 53 c20 67 20 100 1 175 -29 110
-84 194 -335 510 -101 127 -144 212 -144 281 0 114 87 169 479 304 368 126
523 198 644 299 96 81 150 207 136 320 -26 205 -167 449 -415 714 -86 92 -235
219 -290 247 -48 24 -50 25 -50 2z"/>
</g>
</svg>
